<?xml version="1.0" encoding="UTF-8" standalone="no"?>
<svg
   xmlns:dc="http://purl.org/dc/elements/1.1/"
   xmlns:cc="http://creativecommons.org/ns#"
   xmlns:rdf="http://www.w3.org/1999/02/22-rdf-syntax-ns#"
   xmlns:svg="http://www.w3.org/2000/svg"
   xmlns="http://www.w3.org/2000/svg"
   xmlns:sodipodi="http://sodipodi.sourceforge.net/DTD/sodipodi-0.dtd"
   xmlns:inkscape="http://www.inkscape.org/namespaces/inkscape"
   viewBox="84 58 662.05017 954.99408"
   version="1.1"
   id="svg29"
   sodipodi:docname="line-3-with-black-x.svg"
   inkscape:version="0.92.2 (5c3e80d, 2017-08-06)"
   width="662.05017"
   height="954.99408">
  <metadata
     id="metadata35">
    <rdf:RDF>
      <cc:Work
         rdf:about="">
        <dc:format>image/svg+xml</dc:format>
        <dc:type
           rdf:resource="http://purl.org/dc/dcmitype/StillImage" />
        <dc:title></dc:title>
      </cc:Work>
    </rdf:RDF>
  </metadata>
  <defs
     id="defs33" />
  <sodipodi:namedview
     pagecolor="#ffffff"
     bordercolor="#666666"
     borderopacity="1"
     objecttolerance="10"
     gridtolerance="10"
     guidetolerance="10"
     inkscape:pageopacity="0"
     inkscape:pageshadow="2"
     inkscape:window-width="1247"
     inkscape:window-height="723"
     id="namedview31"
     showgrid="false"
     inkscape:zoom="0.34104628"
     inkscape:cx="331.16344"
     inkscape:cy="477.62433"
     inkscape:window-x="0"
     inkscape:window-y="0"
     inkscape:window-maximized="0"
     inkscape:current-layer="svg29" />
  <g
     transform="matrix(0.6666665,-1.1547002,-1.1547002,-0.6666665,323.12188,1095.4398)"
     id="g4542">
    <g
       transform="translate(270.4375,80.4648)"
       id="g4544">
      <path
         id="path4546"
         style="fill:#f5f5f5;fill-opacity:1;fill-rule:nonzero;stroke:none"
         d="M 0,0 -120.438,-69.534 -240.875,0 V 139.07 L -120.438,208.604 0,139.07 Z"
         inkscape:connector-curvature="0" />
    </g>
    <g
       id="g4548">
      <g
         clip-path="url(#clipPath4554)"
         id="g4550">
        <g
           transform="translate(270.4375,80.4648)"
           id="g4556">
          <path
             id="path4558"
             style="fill:none;stroke:#231f20;stroke-width:8;stroke-linecap:butt;stroke-linejoin:round;stroke-miterlimit:10;stroke-dasharray:none;stroke-opacity:1"
             d="M 0,0 -120.438,-69.534 -240.875,0 V 139.07 L -120.438,208.604 0,139.07 Z"
             inkscape:connector-curvature="0" />
        </g>
      </g>
    </g>
    <g
       transform="translate(245.6172,94.7949)"
       id="g4560">
      <path
         id="path4562"
         style="fill:#535456;fill-opacity:1;fill-rule:nonzero;stroke:none"
         d="M 0,0 -95.617,-55.204 -191.234,0 V 110.41 L -95.617,165.615 0,110.41 Z"
         inkscape:connector-curvature="0" />
    </g>
  </g>
  <g
     transform="matrix(0.6666665,-1.1547002,-1.1547002,-0.6666665,488.5894,808.90948)"
     id="g4493">
    <g
       transform="translate(270.4375,80.4648)"
       id="g4495">
      <path
         id="path4497"
         style="fill:#f5f5f5;fill-opacity:1;fill-rule:nonzero;stroke:none"
         d="M 0,0 -120.438,-69.534 -240.875,0 V 139.07 L -120.438,208.604 0,139.07 Z"
         inkscape:connector-curvature="0" />
    </g>
    <g
       id="g4499">
      <g
         clip-path="url(#clipPath4505)"
         id="g4501">
        <g
           transform="translate(270.4375,80.4648)"
           id="g4507">
          <path
             id="path4509"
             style="fill:none;stroke:#231f20;stroke-width:8;stroke-linecap:butt;stroke-linejoin:round;stroke-miterlimit:10;stroke-dasharray:none;stroke-opacity:1"
             d="M 0,0 -120.438,-69.534 -240.875,0 V 139.07 L -120.438,208.604 0,139.07 Z"
             inkscape:connector-curvature="0" />
        </g>
      </g>
    </g>
    <g
       transform="translate(245.6172,94.7949)"
       id="g4511">
      <path
         id="path4513"
         style="fill:#c71e25;fill-opacity:1;fill-rule:nonzero;stroke:none"
         d="M 0,0 -95.617,-55.204 -191.235,0 V 110.41 L -95.617,165.615 0,110.41 Z"
         inkscape:connector-curvature="0" />
    </g>
  </g>
  <g
     transform="matrix(0.6666665,-1.1547002,-1.1547002,-0.6666665,653.33791,521.96398)"
     id="g-1">
    <g
       transform="translate(270.4375,80.4648)"
       id="g-2">
      <path
         id="path-1"
         style="fill:#f5f5f5;fill-opacity:1;fill-rule:nonzero;stroke:none"
         d="M 0,0 -120.438,-69.534 -240.875,0 V 139.07 L -120.438,208.604 0,139.07 Z"
         inkscape:connector-curvature="0" />
    </g>
    <g
       id="g-3">
      <g
         clip-path="url(#clipPath4505)"
         id="g-4">
        <g
           transform="translate(270.4375,80.4648)"
           id="g-5">
          <path
             id="path-2"
             style="fill:none;stroke:#231f20;stroke-width:8;stroke-linecap:butt;stroke-linejoin:round;stroke-miterlimit:10;stroke-dasharray:none;stroke-opacity:1"
             d="M 0,0 -120.438,-69.534 -240.875,0 V 139.07 L -120.438,208.604 0,139.07 Z"
             inkscape:connector-curvature="0" />
        </g>
      </g>
    </g>
    <g
       transform="translate(245.6172,94.7949)"
       id="g-6">
      <path
         id="path-3"
         style="fill:#c71e25;fill-opacity:1;fill-rule:nonzero;stroke:none"
         d="M 0,0 -95.617,-55.204 -191.235,0 V 110.41 L -95.617,165.615 0,110.41 Z"
         inkscape:connector-curvature="0" />
    </g>
  </g>
</svg>
